# xmcd CD database file
#
# Track frame offsets:
#	150
#	32396
#	55085
#	85518
#	99039
#	119334
#	148622
#	168367
#	192086
#	210792
#	245543
#	279980
#	304800
#	322831
#	340090
#
# Disc length: 4766 seconds
#
# Revision: 0
# Processed by: cddbd v1.5.2PL0 Copyright (c) Steve Scherf et al.
# Submitted via: CDex 2.16
#
DISCID=b4129c0f
DTITLE=Various Artist - EMOTIONAL JAZZ SAXOPHONE2 [CD1)
DYEAR=2018
DGENRE=Jazz
TTITLE0=How About You?-Stan Getz
TTITLE1=Pepper Pot-Art Pepper
TTITLE2=Cherokee-Johnny Griffin
TTITLE3=The Song Is You-Charlie Parker
TTITLE4=Avila And Tequila-Hank Mobley
TTITLE5=You're Sensational-Sonny Red
TTITLE6=Naima-John Coltrane
TTITLE7=Blues In The Night-Herb Geller
TTITLE8=Reflections-Steve Lacy
TTITLE9=Soul Sister-Dexter Gordon
TTITLE10=From This Moment On-Kenny Burrell(John Jenkins)
TTITLE11=You Are Too Beautiful-Warne Marsh
TTITLE12=I Love You-Hampton Hawes(Harold Land)
TTITLE13=Tonight-The Dave Brubeckd Quartet(Paul Desmond)
TTITLE14=My One And Only Love-Pepper Adams
EXTD=YEAR: 2018
EXTT0=
EXTT1=
EXTT2=
EXTT3=
EXTT4=
EXTT5=
EXTT6=
EXTT7=
EXTT8=
EXTT9=
EXTT10=
EXTT11=
EXTT12=
EXTT13=
EXTT14=
PLAYORDER=
